<svg id="Layer_1" data-name="Layer 1" xmlns="http://www.w3.org/2000/svg" viewBox="0 0 90 90"><defs><style>.cls-1{fill:#fdce9b;}.cls-2{fill:#6157a2;}</style></defs><path class="cls-1" d="M38.14,43.21A13.29,13.29,0,0,1,41.2,62a13.11,13.11,0,0,1-17.52,3.34h0A2.93,2.93,0,0,1,18,64.83a2.51,2.51,0,0,1,0-.39V33.25a3,3,0,0,1,2-2.87,2.92,2.92,0,0,1,3.79,2.29,4.28,4.28,0,0,1,.06.72c0,7.07,0,14.14,0,21.22A6.8,6.8,0,0,0,29,61.3,7.36,7.36,0,1,0,32,46.87a10.83,10.83,0,0,0-1.8-.14c-.68,0-1.36,0-2,0A2.92,2.92,0,0,1,28,40.88h0a22.72,22.72,0,0,1,6.36.67A9.46,9.46,0,0,1,38.14,43.21Z"/><path class="cls-2" d="M38.14,43.21s-5.59,3.8-8,3.52c-.68,0-1.36,0-2,0A2.92,2.92,0,0,1,28,40.88c.75,0,1.51,0,2.26-.06a6.16,6.16,0,0,0-.65-12.3c-3.52,0-7,0-10.55,0a2.92,2.92,0,0,0-2.93,2.95q0,16.43,0,32.84a3,3,0,0,1-2.44,3,2.94,2.94,0,0,1-3.41-2.75V31.23a8.81,8.81,0,0,1,5.59-8,9.89,9.89,0,0,1,3.4-.59c3.55,0,7.1,0,10.65,0a11.61,11.61,0,0,1,8,3.24,11.46,11.46,0,0,1,3.53,6.2A11.81,11.81,0,0,1,38.85,42.4C38.63,42.68,38.38,42.94,38.14,43.21Z"/><path class="cls-2" d="M49.41,42.9a2.7,2.7,0,0,1-2.21,1,2.53,2.53,0,0,1-2-.75,3.18,3.18,0,0,1-.7-2.19V36.72a1.08,1.08,0,0,1,1.07-1.08h0a1.08,1.08,0,0,1,1.08,1.08v4.15c0,.84.39,1.26,1.16,1.26a1.54,1.54,0,0,0,1.5-.76V36.72a1.09,1.09,0,0,1,1.08-1.08h0a1.08,1.08,0,0,1,1.08,1.08V42.9a.83.83,0,0,1-.82.83H49.47Z"/><path class="cls-2" d="M57.51,41.49a.69.69,0,0,0-.39-.62,4.73,4.73,0,0,0-1.26-.41C53.93,40.06,53,39.24,53,38a2.22,2.22,0,0,1,.9-1.8,3.58,3.58,0,0,1,2.33-.72,3.81,3.81,0,0,1,2.46.73,2.53,2.53,0,0,1,.49.49.89.89,0,0,1-.74,1.39h-.3a.88.88,0,0,1-.79-.48.91.91,0,0,0-.19-.29,1.28,1.28,0,0,0-.94-.3,1.26,1.26,0,0,0-.84.25.77.77,0,0,0-.3.63.65.65,0,0,0,.34.57,3.5,3.5,0,0,0,1.15.39,8.25,8.25,0,0,1,1.36.36,2.23,2.23,0,0,1,1.71,2.17,2.11,2.11,0,0,1-1,1.79,4.06,4.06,0,0,1-2.45.69,4.33,4.33,0,0,1-1.81-.37,3,3,0,0,1-1.23-1h0a.87.87,0,0,1,.74-1.35h.19a.88.88,0,0,1,.8.5,1.1,1.1,0,0,0,.3.38,1.73,1.73,0,0,0,1.06.3,1.53,1.53,0,0,0,.94-.23A.74.74,0,0,0,57.51,41.49Z"/><path class="cls-2" d="M64,40.67l1.27-4.26a1.09,1.09,0,0,1,1-.77h0a1.08,1.08,0,0,1,1,1.43L64.57,45l-.17.43A2.48,2.48,0,0,1,62,47h0a1,1,0,0,1-1-1v-.78h.33a1.69,1.69,0,0,0,.91-.19,1.25,1.25,0,0,0,.48-.62l.25-.66-2.33-6.68a1.07,1.07,0,0,1,1-1.43h0a1.06,1.06,0,0,1,1,.77Z"/><path class="cls-1" d="M50.41,63.26a2.7,2.7,0,0,1-2.21,1,2.53,2.53,0,0,1-2-.75,3.18,3.18,0,0,1-.7-2.19V57.08A1.08,1.08,0,0,1,46.59,56h0a1.08,1.08,0,0,1,1.08,1.08v4.15c0,.84.39,1.26,1.16,1.26a1.77,1.77,0,0,0,1.22-.39,1,1,0,0,0,.28-.73V57.08A1.09,1.09,0,0,1,51.41,56h0a1.08,1.08,0,0,1,1.08,1.08V63a1.08,1.08,0,0,1-1.08,1.08h-1Z"/><path class="cls-1" d="M53.79,60a4.91,4.91,0,0,1,.85-3A2.78,2.78,0,0,1,57,55.85a2.61,2.61,0,0,1,.69.09A1,1,0,0,0,58.91,55V53.59a1,1,0,0,1,1-1h.21a1,1,0,0,1,1,1v9.52a1,1,0,0,1-1,1H60a1,1,0,0,1-1-.86h0a2.55,2.55,0,0,1-2.07,1,2.73,2.73,0,0,1-2.29-1.13A5,5,0,0,1,53.79,60Zm2.16.17a3.16,3.16,0,0,0,.4,1.74,1.29,1.29,0,0,0,1.15.6,1.46,1.46,0,0,0,1.2-.5,1,1,0,0,0,.21-.62V58.73a1,1,0,0,0-.21-.61,1.45,1.45,0,0,0-1.19-.51C56.47,57.61,56,58.45,56,60.15Z"/><path class="cls-1" d="M62.41,60a4.91,4.91,0,0,1,.85-3,2.78,2.78,0,0,1,2.32-1.12,2.56,2.56,0,0,1,.69.09A1,1,0,0,0,67.53,55V53.59a1,1,0,0,1,1-1h.21a1,1,0,0,1,1,1v9.52a1,1,0,0,1-1,1h-.11a1,1,0,0,1-1-.86h0a2.53,2.53,0,0,1-2.07,1,2.74,2.74,0,0,1-2.29-1.13A5,5,0,0,1,62.41,60Zm2.16.17a3.25,3.25,0,0,0,.4,1.74,1.29,1.29,0,0,0,1.15.6,1.46,1.46,0,0,0,1.2-.5,1,1,0,0,0,.21-.62V58.73a1,1,0,0,0-.21-.61,1.44,1.44,0,0,0-1.18-.51C65.09,57.61,64.57,58.45,64.57,60.15Z"/><path class="cls-1" d="M74.39,61l1.27-4.26a1.07,1.07,0,0,1,1-.77h0a1.07,1.07,0,0,1,1,1.43L75,65.34l-.18.43a2.47,2.47,0,0,1-2.39,1.58h0a1,1,0,0,1-1-1v-.79h.33a1.73,1.73,0,0,0,.92-.19,1.18,1.18,0,0,0,.47-.62l.26-.66-2.33-6.68a1.07,1.07,0,0,1,1-1.43h0a1.08,1.08,0,0,1,1,.77Z"/></svg>