<svg id="Layer_1" data-name="Layer 1" xmlns="http://www.w3.org/2000/svg" viewBox="0 0 72 72"><defs><style>.cls-1{fill:#fdce9b;}.cls-2{fill:#6157a2;}</style></defs><path class="cls-1" d="M50.44,33.69a17.25,17.25,0,0,1,4,24.34,17,17,0,0,1-22.74,4.33l-.05,0a3.8,3.8,0,0,1-7.37-.64,2.86,2.86,0,0,1,0-.51V20.75A3.87,3.87,0,0,1,26.84,17a3.8,3.8,0,0,1,4.92,3,5.74,5.74,0,0,1,.08.93V48.47a8.81,8.81,0,0,0,6.78,8.68,9.55,9.55,0,1,0,3.8-18.72,15.18,15.18,0,0,0-2.34-.19c-.87,0-1.75,0-2.63,0a3.79,3.79,0,0,1-.24-7.58h0a29.48,29.48,0,0,1,8.26.88A12,12,0,0,1,50.44,33.69Z"/><path class="cls-2" d="M50.44,33.69s-7.25,4.93-10.36,4.55c-.87,0-1.75,0-2.63,0a3.79,3.79,0,0,1-.24-7.58c1,0,2,0,2.94-.07a8,8,0,0,0-.84-16c-4.56,0-9.13,0-13.7,0a3.79,3.79,0,0,0-3.8,3.83q0,21.3,0,42.61a4,4,0,0,1-3.17,3.88,3.82,3.82,0,0,1-4.43-3.57V18.13A11.41,11.41,0,0,1,21.49,7.77,12.62,12.62,0,0,1,25.91,7c4.6,0,9.21,0,13.82,0A15.56,15.56,0,0,1,54.64,19.28a15.33,15.33,0,0,1-3.27,13.34C51.07,33,50.75,33.33,50.44,33.69Z"/></svg>